<svg width="29" height="28" viewBox="0 0 29 28" fill="none" xmlns="http://www.w3.org/2000/svg">
<path d="M20.0709 9.14759C20.0709 9.04306 19.9944 8.95159 19.8908 8.93292L17.3894 8.51478L16.9722 6.01432C16.9517 5.91072 16.8611 5.83325 16.7566 5.83325C16.6511 5.83325 16.5615 5.91072 16.5419 6.01432L16.1257 8.51478L13.6252 8.93292C13.5207 8.95159 13.4423 9.04306 13.4423 9.14759C13.4423 9.25306 13.5207 9.34267 13.6252 9.36133L16.1257 9.77668L16.5419 12.2799C16.5615 12.3835 16.6511 12.461 16.7566 12.461C16.8611 12.461 16.9517 12.3835 16.9722 12.2799L17.3894 9.77668L19.8908 9.36133C19.9944 9.34267 20.0709 9.25306 20.0709 9.14759Z" fill="#8B5146"/>
<path fill-rule="evenodd" clip-rule="evenodd" d="M24.9387 16.3521L14.3666 13.5193C14.1734 11.857 12.9983 10.4019 11.2828 9.94365C10.5967 9.75885 9.90606 9.75418 9.26111 9.90445C9.69512 9.02523 9.64565 8.04054 9.04364 7.38813C8.22322 6.49024 6.66825 6.57331 5.57809 7.57667C4.48607 8.57909 4.26766 10.1173 5.08995 11.0179C5.49969 11.465 6.09237 11.6685 6.71959 11.6377C6.46105 12.0148 6.26224 12.445 6.13437 12.9136C6.0121 13.3803 5.96824 13.8516 6.0009 14.3099C5.47636 13.9692 4.86221 13.8497 4.2826 14.0317C3.11964 14.3986 2.53816 15.8397 2.98243 17.2565C3.42764 18.6705 4.73061 19.518 5.89357 19.154C6.73825 18.8889 7.27587 18.0573 7.33747 17.0848C7.82095 17.5328 8.42389 17.8762 9.10991 18.0601C10.7666 18.5035 12.4616 17.8865 13.4715 16.6311L18.5359 17.9864L17.7061 21.0804C17.6697 21.2195 17.75 21.3651 17.889 21.4015L19.0044 21.6983C19.1416 21.7357 19.3161 21.6657 19.3871 21.5397L19.7082 20.7678C19.7772 20.6436 19.949 20.5727 20.0871 20.6091L21.2463 20.918C21.3835 20.9582 21.4983 21.1047 21.4983 21.2475L21.3854 22.0773C21.3854 22.2182 21.4983 22.3675 21.6365 22.4039L22.7528 22.7045C22.8909 22.7409 23.0346 22.6578 23.072 22.5187L23.9008 19.4228L24.0996 19.4779C24.9816 19.7112 25.8823 19.2053 26.1119 18.342C26.3434 17.4768 25.8188 16.5863 24.9387 16.3521ZM11.9314 14.4014C11.6766 15.3562 10.6919 15.9265 9.73432 15.6698C8.77763 15.414 8.21295 14.4303 8.46776 13.4745C8.72443 12.5169 9.70539 11.9494 10.663 12.2061C11.6197 12.4628 12.1881 13.4447 11.9314 14.4014Z" fill="#8B5146"/>
<path d="M21.3593 11.5086L22.6614 11.7289C22.7631 11.7475 22.8434 11.8362 22.8434 11.9426C22.8434 12.05 22.7631 12.1386 22.6614 12.1554L21.3593 12.372L21.1409 13.674C21.1232 13.7795 21.0317 13.8541 20.9281 13.8541C20.8217 13.8541 20.7312 13.7795 20.7125 13.674L20.496 12.372L19.194 12.1554C19.0904 12.1386 19.012 12.05 19.012 11.9426C19.012 11.8362 19.0885 11.7475 19.194 11.7289L20.496 11.5086L20.7125 10.2066C20.7312 10.1039 20.8217 10.0264 20.9281 10.0264C21.0317 10.0264 21.1232 10.1039 21.1409 10.2066L21.3593 11.5086Z" fill="#8B5146"/>
</svg>
