<svg width="48" height="48" viewBox="0 0 48 48" fill="none" xmlns="http://www.w3.org/2000/svg">
<rect width="48" height="48" rx="8" fill="white"/>
<path fill-rule="evenodd" clip-rule="evenodd" d="M29.3604 17.8628C29.3604 18.2768 29.0223 18.6164 28.6067 18.6164C28.1896 18.6164 27.8562 18.2768 27.8562 17.8628V15.7521C27.8562 15.3389 28.1896 15 28.6067 15C29.0223 15 29.3604 15.3389 29.3604 15.7521V17.8628ZM19.3912 18.6164C19.8083 18.6164 20.1464 18.2783 20.1464 17.8628V15.7537C20.1464 15.3389 19.8083 15.0016 19.3912 15.0016C18.9772 15.0016 18.6407 15.3389 18.6407 15.7537V17.8628C18.6407 18.2783 18.9772 18.6164 19.3912 18.6164ZM27.0397 30.2714H31.0521V26.2574H27.0397V30.2714ZM17.005 30.2714H21.0175V26.2574H17.005V30.2714ZM17.005 25.2533H21.0175V21.183H17.005V25.2533ZM22.0231 25.2533H26.0371V21.183H22.0231V25.2533ZM22.0231 30.2714H26.0371V26.2574H22.0231V30.2714ZM27.0397 25.2533H31.0521V21.183H27.0397V25.2533ZM31.013 17.2269H30.1717V17.8702C30.1717 18.7358 29.4689 19.4401 28.6064 19.4401C27.7432 19.4401 27.0397 18.7358 27.0397 17.8702V17.2269H20.9611V17.8702C20.9611 18.7358 20.2568 19.4386 19.3912 19.4386C18.5288 19.4386 17.8276 18.7358 17.8276 17.8702V17.2269H16.987C15.8922 17.2269 15 18.4102 15 19.5043V30.2918C15 31.4039 15.9196 32.2788 17.0997 32.2788H31.1272C32.1407 32.2788 33 31.3687 33 30.2918V19.5043C33 18.4102 32.1102 17.2269 31.013 17.2269Z" fill="url(#paint0_linear)"/>
<defs>
<linearGradient id="paint0_linear" x1="24.1844" y1="40.3082" x2="41.0161" y2="22.774" gradientUnits="userSpaceOnUse">
<stop stop-color="#B452A3"/>
<stop offset="1" stop-color="#7640A1"/>
</linearGradient>
</defs>
</svg>
