<svg width="29" height="28" viewBox="0 0 29 28" fill="none" xmlns="http://www.w3.org/2000/svg">
<path d="M20.0709 9.14784C20.0709 9.0433 19.9944 8.95183 19.8908 8.93317L17.3894 8.51502L16.9722 6.01457C16.9517 5.91096 16.8611 5.8335 16.7566 5.8335C16.6511 5.8335 16.5615 5.91096 16.5419 6.01457L16.1257 8.51502L13.6252 8.93317C13.5207 8.95183 13.4423 9.0433 13.4423 9.14784C13.4423 9.25331 13.5207 9.34291 13.6252 9.36158L16.1257 9.77692L16.5419 12.2802C16.5615 12.3838 16.6511 12.4612 16.7566 12.4612C16.8611 12.4612 16.9517 12.3838 16.9722 12.2802L17.3894 9.77692L19.8908 9.36158C19.9944 9.34291 20.0709 9.25331 20.0709 9.14784Z" fill="#73583D"/>
<path fill-rule="evenodd" clip-rule="evenodd" d="M24.9387 16.3523L14.3666 13.5196C14.1734 11.8573 12.9983 10.4022 11.2828 9.9439C10.5967 9.75909 9.90606 9.75443 9.26111 9.9047C9.69512 9.02548 9.64565 8.04079 9.04364 7.38837C8.22322 6.49048 6.66825 6.57355 5.57809 7.57691C4.48607 8.57933 4.26766 10.1175 5.08995 11.0182C5.49969 11.4653 6.09237 11.6687 6.71959 11.6379C6.46105 12.015 6.26224 12.4453 6.13437 12.9138C6.0121 13.3805 5.96824 13.8519 6.0009 14.3101C5.47636 13.9695 4.86221 13.85 4.2826 14.032C3.11964 14.3988 2.53816 15.8399 2.98243 17.2567C3.42764 18.6708 4.73061 19.5183 5.89357 19.1542C6.73825 18.8892 7.27587 18.0576 7.33747 17.085C7.82095 17.533 8.42389 17.8765 9.10991 18.0604C10.7666 18.5037 12.4616 17.8867 13.4715 16.6314L18.5359 17.9866L17.7061 21.0807C17.6697 21.2198 17.75 21.3654 17.889 21.4018L19.0044 21.6986C19.1416 21.7359 19.3161 21.6659 19.3871 21.5399L19.7082 20.768C19.7772 20.6439 19.949 20.5729 20.0871 20.6093L21.2463 20.9183C21.3835 20.9584 21.4983 21.105 21.4983 21.2478L21.3854 22.0775C21.3854 22.2184 21.4983 22.3678 21.6365 22.4042L22.7528 22.7047C22.8909 22.7411 23.0346 22.6581 23.072 22.519L23.9008 19.423L24.0996 19.4781C24.9816 19.7115 25.8823 19.2056 26.1119 18.3422C26.3434 17.477 25.8188 16.5866 24.9387 16.3523ZM11.9314 14.4016C11.6766 15.3564 10.6919 15.9267 9.73432 15.67C8.77763 15.4143 8.21295 14.4305 8.46776 13.4748C8.72443 12.5172 9.70539 11.9497 10.663 12.2063C11.6197 12.463 12.1881 13.4449 11.9314 14.4016Z" fill="#73583D"/>
<path d="M21.3593 11.5089L22.6614 11.7291C22.7631 11.7478 22.8434 11.8365 22.8434 11.9429C22.8434 12.0502 22.7631 12.1389 22.6614 12.1557L21.3593 12.3722L21.1409 13.6742C21.1232 13.7797 21.0317 13.8544 20.9281 13.8544C20.8217 13.8544 20.7312 13.7797 20.7125 13.6742L20.496 12.3722L19.194 12.1557C19.0904 12.1389 19.012 12.0502 19.012 11.9429C19.012 11.8365 19.0885 11.7478 19.194 11.7291L20.496 11.5089L20.7125 10.2068C20.7312 10.1042 20.8217 10.0267 20.9281 10.0267C21.0317 10.0267 21.1232 10.1042 21.1409 10.2068L21.3593 11.5089Z" fill="#73583D"/>
</svg>
