<svg width="64" height="64" viewBox="0 0 64 64" fill="none" xmlns="http://www.w3.org/2000/svg">
<path d="M48.7824 8C48.5591 8 48.3566 8.17113 48.3191 8.39026L46.9542 16.0785L42.1292 17.4726C41.9143 17.5101 41.7494 17.7105 41.7494 17.9359C41.7494 18.1675 41.9143 18.3574 42.1292 18.4033L46.9542 19.7661L48.3191 27.7278C48.3566 27.9531 48.5591 28.1243 48.7824 28.1243C49.0078 28.1243 49.206 27.9531 49.2498 27.7278L50.6481 19.7661L55.5565 18.4033C55.7757 18.3574 55.9447 18.1675 55.9447 17.9359C55.9447 17.7105 55.7757 17.5101 55.5565 17.4726L50.6481 16.0785L49.2498 8.39026C49.206 8.17113 49.0078 8 48.7824 8Z" fill="#253050"/>
<path d="M15.0787 41.5132L14.2397 45.806L10.2766 46.5072C10.0512 46.5427 9.88429 46.7305 9.88429 46.9622C9.88429 47.2001 10.0512 47.39 10.2766 47.4275L14.2397 48.2185L15.0787 55.2431C15.1141 55.4768 15.302 55.6375 15.5357 55.6375C15.7736 55.6375 15.9614 55.4706 15.9906 55.2431L16.6877 48.2185L19.8431 47.4275C20.0643 47.39 20.2271 47.2001 20.2271 46.9622C20.2271 46.7305 20.0643 46.5427 19.8431 46.5072L16.6877 45.806L15.9906 41.5132C15.9614 41.2857 15.7736 41.1229 15.5357 41.1229C15.302 41.1229 15.1141 41.2857 15.0787 41.5132Z" fill="#253050"/>
<path d="M28.1393 49.5502C29.3685 49.5502 30.3577 48.5609 30.3577 47.3297C30.3577 46.1046 29.3685 45.1133 28.1393 45.1133C26.9205 45.1133 25.9209 46.1046 25.9209 47.3297C25.9209 48.5609 26.9205 49.5502 28.1393 49.5502Z" fill="#253050"/>
<path d="M10.7531 12.1434C10.3628 10.9893 10.9889 10.3612 12.143 10.7535L18.1972 12.8008C19.3596 13.1973 21.1042 12.9218 22.0851 12.1893L27.2085 8.36813C28.1894 7.63771 28.9761 8.0384 28.9595 9.25925L28.8801 15.6515C28.8655 16.8745 29.669 18.4543 30.6666 19.1555L35.886 22.8514C36.8835 23.5589 36.7458 24.4271 35.5792 24.7944L29.4749 26.6935C28.3083 27.0566 27.0562 28.3067 26.6889 29.4816L24.796 35.5775C24.4329 36.7504 23.5564 36.8839 22.8468 35.8885L19.1613 30.6712C18.4497 29.6673 16.874 28.866 15.6511 28.8827L9.26092 28.964C8.03381 28.9787 7.63312 28.1877 8.36771 27.211L12.1889 22.0876C12.9214 21.1047 13.199 19.3558 12.8024 18.1976L10.7531 12.1434Z" fill="#253050"/>
<path d="M50.9609 55.1396C51.539 55.7135 52.2924 55.9994 53.0499 55.9994C53.8012 55.9994 54.5588 55.7135 55.1348 55.1396C56.2847 53.9834 56.2847 52.1156 55.1348 50.9657L34.6912 30.5159C33.5371 29.366 31.6672 29.366 30.5194 30.5159C29.3674 31.67 29.3674 33.5357 30.5194 34.6856L50.9609 55.1396Z" fill="#253050"/>
</svg>
