<svg width="32" height="32" viewBox="0 0 32 32" fill="none" xmlns="http://www.w3.org/2000/svg">
<path d="M22.3668 10.4546C22.3668 10.3351 22.2794 10.2306 22.161 10.2092L19.3022 9.73135L18.8254 6.87369C18.802 6.75528 18.6985 6.66675 18.579 6.66675C18.4585 6.66675 18.3561 6.75528 18.3337 6.87369L17.8579 9.73135L15.0003 10.2092C14.8808 10.2306 14.7912 10.3351 14.7912 10.4546C14.7912 10.5751 14.8808 10.6775 15.0003 10.6988L17.8579 11.1735L18.3337 14.0344C18.3561 14.1528 18.4585 14.2413 18.579 14.2413C18.6985 14.2413 18.802 14.1528 18.8254 14.0344L19.3022 11.1735L22.161 10.6988C22.2794 10.6775 22.3668 10.5751 22.3668 10.4546Z" fill="#253050"/>
<path fill-rule="evenodd" clip-rule="evenodd" d="M27.93 18.6883L15.8476 15.4508C15.6267 13.5511 14.2838 11.8881 12.3232 11.3643C11.5392 11.1531 10.7498 11.1478 10.0128 11.3195C10.5088 10.3147 10.4522 9.18937 9.76421 8.44375C8.82659 7.41759 7.04948 7.51253 5.80359 8.65922C4.55556 9.80485 4.30595 11.5628 5.24571 12.5921C5.71399 13.1031 6.39134 13.3356 7.10815 13.3004C6.81268 13.7313 6.58547 14.2231 6.43934 14.7586C6.2996 15.2919 6.24947 15.8306 6.2868 16.3543C5.68732 15.965 4.98544 15.8285 4.32302 16.0365C2.99392 16.4557 2.32938 18.1026 2.83712 19.7219C3.34593 21.3379 4.83503 22.3065 6.16413 21.8905C7.12949 21.5875 7.7439 20.6371 7.8143 19.5256C8.36685 20.0376 9.05593 20.4302 9.83995 20.6403C11.7333 21.147 13.6704 20.4419 14.8246 19.0072L20.6125 20.556L19.6642 24.0921C19.6226 24.251 19.7143 24.4175 19.8732 24.4591L21.1479 24.7983C21.3047 24.8409 21.5042 24.7609 21.5853 24.6169L21.9522 23.7348C22.0312 23.5929 22.2274 23.5118 22.3853 23.5534L23.7101 23.9065C23.8669 23.9524 23.9981 24.1198 23.9981 24.283L23.8691 25.2313C23.8691 25.3924 23.9981 25.5631 24.156 25.6047L25.4318 25.9482C25.5896 25.9898 25.7539 25.8948 25.7966 25.7359L26.7438 22.1977L26.971 22.2606C27.979 22.5273 29.0084 21.9491 29.2708 20.9624C29.5353 19.9736 28.9359 18.956 27.93 18.6883ZM13.0646 16.4589C12.7733 17.5501 11.648 18.2018 10.5536 17.9085C9.46021 17.6162 8.81486 16.4919 9.10606 15.3996C9.3994 14.3052 10.5205 13.6567 11.6149 13.95C12.7083 14.2433 13.3579 15.3655 13.0646 16.4589Z" fill="#253050"/>
<path d="M23.8393 13.1529L25.3273 13.4046C25.4436 13.4259 25.5354 13.5273 25.5354 13.6489C25.5354 13.7716 25.4436 13.8729 25.3273 13.8921L23.8393 14.1396L23.5897 15.6276C23.5694 15.7481 23.4649 15.8335 23.3465 15.8335C23.2249 15.8335 23.1214 15.7481 23.1001 15.6276L22.8526 14.1396L21.3646 13.8921C21.2462 13.8729 21.1566 13.7716 21.1566 13.6489C21.1566 13.5273 21.2441 13.4259 21.3646 13.4046L22.8526 13.1529L23.1001 11.6648C23.1214 11.5475 23.2249 11.459 23.3465 11.459C23.4649 11.459 23.5694 11.5475 23.5897 11.6648L23.8393 13.1529Z" fill="#253050"/>
</svg>
