<svg width="32" height="32" viewBox="0 0 32 32" fill="none" xmlns="http://www.w3.org/2000/svg">
<path d="M21.0451 14.6416C21.4224 14.2701 21.7497 13.8294 22.0195 13.3254C22.3065 12.7945 22.4525 12.1744 22.4525 11.4822C22.4525 10.6076 22.2057 9.78776 21.719 9.04279C21.2323 8.30837 20.542 7.72084 19.6636 7.2994C18.7986 6.88083 17.7964 6.66675 16.6789 6.66675C15.4789 6.66675 14.4037 6.92307 13.4869 7.42132C12.572 7.92437 11.8654 8.5695 11.3806 9.34135C10.8939 10.119 10.6481 10.9091 10.6481 11.6838C10.6481 12.1504 10.8363 12.5776 11.203 12.9568C11.5755 13.3398 12.0392 13.5318 12.5797 13.5318C13.2171 13.5318 14.0552 13.2601 14.4469 11.966C14.6831 11.2623 14.9653 10.7305 15.2888 10.3849C15.5643 10.0892 16.0319 9.94136 16.6789 9.94136C17.2319 9.94136 17.6687 10.0911 18.0047 10.406C18.333 10.7055 18.4895 11.0655 18.4895 11.5014C18.4895 11.7116 18.4406 11.9046 18.3407 12.0822C18.2217 12.2953 18.0767 12.4883 17.9039 12.6601C17.7061 12.8588 17.3797 13.1574 16.9256 13.5529C16.389 14.0253 15.9551 14.439 15.6363 14.7846C15.2888 15.159 15.0066 15.6026 14.7973 16.097C14.5832 16.5991 14.4776 17.1914 14.4776 17.8634C14.4776 18.4826 14.6581 18.9693 15.0123 19.3092C15.3608 19.6481 15.7957 19.817 16.3007 19.817C17.2626 19.817 17.8905 19.2775 18.0748 18.2973C18.1477 17.9575 18.2044 17.7204 18.2428 17.5908C18.2725 17.4813 18.3177 17.369 18.3762 17.2576C18.4281 17.1549 18.5154 17.033 18.6374 16.8957C18.7727 16.7402 18.958 16.5549 19.1826 16.3475C20.0697 15.5575 20.6956 14.9834 21.0451 14.6416Z" fill="#253050"/>
<path d="M16.4207 25.4475C16.9688 25.4475 17.4565 25.2622 17.8751 24.8907C18.3061 24.5058 18.526 23.9816 18.526 23.3297C18.526 22.7432 18.3225 22.2411 17.9145 21.835C17.5103 21.4299 17.0072 21.2235 16.4207 21.2235C15.8283 21.2235 15.3186 21.4299 14.9067 21.8312C14.493 22.2363 14.2779 22.7412 14.2779 23.3297C14.2779 23.9912 14.5054 24.5182 14.9423 24.8984C15.3637 25.2651 15.8581 25.4475 16.4207 25.4475Z" fill="#253050"/>
<path d="M23.6862 16.7483C23.7015 16.6571 23.7841 16.5861 23.8772 16.5861C23.9713 16.5861 24.0529 16.6571 24.0702 16.7483L24.65 19.9298L26.6814 20.5078C26.7726 20.5231 26.8417 20.6057 26.8417 20.6988C26.8417 20.7958 26.7726 20.8735 26.6814 20.8927L24.65 21.4572L24.0702 24.752C24.0529 24.8461 23.9713 24.9162 23.8772 24.9162C23.7841 24.9162 23.7015 24.8461 23.6862 24.752L23.1207 21.4572L21.1229 20.8927C21.0356 20.8735 20.9664 20.7958 20.9664 20.6988C20.9664 20.6057 21.0356 20.5231 21.1229 20.5078L23.1207 19.9298L23.6862 16.7483Z" fill="#253050"/>
<path d="M7.19973 12.327C7.09797 12.327 7.00677 12.4048 6.98853 12.5056L6.3674 16.0029L4.1728 16.6375C4.07488 16.6538 4 16.7459 4 16.8468C4 16.9524 4.07488 17.0388 4.1728 17.0608L6.3674 17.68L6.98853 21.3041C7.00677 21.4059 7.09797 21.4836 7.19973 21.4836C7.30245 21.4836 7.39173 21.4059 7.41189 21.3041L8.04838 17.68L10.2814 17.0608C10.3822 17.0388 10.459 16.9524 10.459 16.8468C10.459 16.7459 10.3822 16.6538 10.2814 16.6375L8.04838 16.0029L7.41189 12.5056C7.39173 12.4048 7.30245 12.327 7.19973 12.327Z" fill="#253050"/>
<path d="M25.8467 7.55102C25.8572 7.48862 25.9139 7.44062 25.9772 7.44062C26.0406 7.44062 26.0973 7.48862 26.1088 7.55102L26.5033 9.72161L27.8906 10.1152C27.952 10.1258 28 10.1824 28 10.2458C28 10.3111 27.952 10.3648 27.8906 10.3783L26.5033 10.7623L26.1088 13.0116C26.0973 13.074 26.0406 13.122 25.9772 13.122C25.9139 13.122 25.8572 13.074 25.8467 13.0116L25.4617 10.7623L24.0985 10.3783C24.038 10.3648 23.9919 10.3111 23.9919 10.2458C23.9919 10.1824 24.038 10.1258 24.0985 10.1152L25.4617 9.72161L25.8467 7.55102Z" fill="#253050"/>
</svg>
