<svg width="48" height="48" viewBox="0 0 48 48" fill="none" xmlns="http://www.w3.org/2000/svg">
<rect width="48" height="48" rx="8" fill="white"/>
<path fill-rule="evenodd" clip-rule="evenodd" d="M27.938 22.7596C27.7523 22.7596 27.5795 22.8654 27.4989 23.0339C27.4175 23.2009 27.4348 23.4011 27.55 23.5501L29.8308 26.4976C29.9237 26.6185 30.0669 26.6869 30.2174 26.6869C30.3693 26.6869 30.5126 26.6192 30.604 26.4983L32.8963 23.5501C32.9662 23.463 33 23.3572 33 23.2506C33 23.1772 32.982 23.1044 32.9496 23.0353C32.8668 22.8654 32.6962 22.7596 32.509 22.7596H31.6573C31.2088 18.9604 27.9719 16 24.0525 16C22.3527 16 20.7357 16.55 19.3829 17.5932C19.2468 17.6976 19.2224 17.8913 19.3253 18.0281L20.6838 19.7927C20.7342 19.8575 20.8077 19.9007 20.889 19.9108C20.9733 19.9208 21.0546 19.8992 21.1194 19.8488C21.9704 19.1923 22.9841 18.8467 24.0525 18.8467C26.3995 18.8467 28.3571 20.535 28.7833 22.7596H27.938ZM17.3945 21.0693L15.1015 24.0182C15.0338 24.1053 15 24.2112 15 24.3177C15 24.3926 15.0166 24.4639 15.0504 24.533C15.131 24.7014 15.3024 24.8087 15.4896 24.8087H16.3413C16.7898 28.6093 20.0267 31.5676 23.9475 31.5676C25.6473 31.5676 27.2629 31.0168 28.6157 29.9729C28.7532 29.8692 28.7762 29.6748 28.6733 29.5402L27.3147 27.7742C27.2643 27.7108 27.1887 27.6655 27.1095 27.6575C27.0296 27.6446 26.9439 27.6669 26.8791 27.718C26.0296 28.3746 25.0145 28.7216 23.9475 28.7216C21.599 28.7216 19.6415 27.0326 19.2167 24.8087H20.062C20.2477 24.8087 20.419 24.7014 20.4997 24.533C20.5825 24.3652 20.5638 24.1658 20.45 24.0182L18.1692 21.0707C18.0763 20.9498 17.9331 20.88 17.7826 20.88C17.6307 20.88 17.4867 20.9483 17.3945 21.0693Z" fill="#6A798A"/>
<path fill-rule="evenodd" clip-rule="evenodd" d="M27.938 22.7596C27.7523 22.7596 27.5795 22.8654 27.4989 23.0339C27.4175 23.2009 27.4348 23.4011 27.55 23.5501L29.8308 26.4976C29.9237 26.6185 30.0669 26.6869 30.2174 26.6869C30.3693 26.6869 30.5126 26.6192 30.604 26.4983L32.8963 23.5501C32.9662 23.463 33 23.3572 33 23.2506C33 23.1772 32.982 23.1044 32.9496 23.0353C32.8668 22.8654 32.6962 22.7596 32.509 22.7596H31.6573C31.2088 18.9604 27.9719 16 24.0525 16C22.3527 16 20.7357 16.55 19.3829 17.5932C19.2468 17.6976 19.2224 17.8913 19.3253 18.0281L20.6838 19.7927C20.7342 19.8575 20.8077 19.9007 20.889 19.9108C20.9733 19.9208 21.0546 19.8992 21.1194 19.8488C21.9704 19.1923 22.9841 18.8467 24.0525 18.8467C26.3995 18.8467 28.3571 20.535 28.7833 22.7596H27.938ZM17.3945 21.0693L15.1015 24.0182C15.0338 24.1053 15 24.2112 15 24.3177C15 24.3926 15.0166 24.4639 15.0504 24.533C15.131 24.7014 15.3024 24.8087 15.4896 24.8087H16.3413C16.7898 28.6093 20.0267 31.5676 23.9475 31.5676C25.6473 31.5676 27.2629 31.0168 28.6157 29.9729C28.7532 29.8692 28.7762 29.6748 28.6733 29.5402L27.3147 27.7742C27.2643 27.7108 27.1887 27.6655 27.1095 27.6575C27.0296 27.6446 26.9439 27.6669 26.8791 27.718C26.0296 28.3746 25.0145 28.7216 23.9475 28.7216C21.599 28.7216 19.6415 27.0326 19.2167 24.8087H20.062C20.2477 24.8087 20.419 24.7014 20.4997 24.533C20.5825 24.3652 20.5638 24.1658 20.45 24.0182L18.1692 21.0707C18.0763 20.9498 17.9331 20.88 17.7826 20.88C17.6307 20.88 17.4867 20.9483 17.3945 21.0693Z" fill="url(#paint0_linear)"/>
<defs>
<linearGradient id="paint0_linear" x1="24.1844" y1="38.8017" x2="39.2033" y2="21.4362" gradientUnits="userSpaceOnUse">
<stop stop-color="#B452A3"/>
<stop offset="1" stop-color="#7640A1"/>
</linearGradient>
</defs>
</svg>
