<svg width="32" height="32" viewBox="0 0 32 32" fill="none" xmlns="http://www.w3.org/2000/svg">
<path d="M19.1426 10.941H22.6337V9.52104C22.6337 5.74217 19.5604 2.66663 15.7804 2.66663C12.0015 2.66663 8.92706 5.74217 8.92706 9.52104V10.941H12.4182V9.52104C12.4182 7.66661 13.927 6.15772 15.7804 6.15772C17.6348 6.15772 19.1426 7.66661 19.1426 9.52104V10.941Z" fill="#253050"/>
<path fill-rule="evenodd" clip-rule="evenodd" d="M8.2544 12.8878H23.3077C24.1832 12.8878 24.8943 13.5967 24.8943 14.4734V20.8556C24.8943 25.6878 20.9766 29.3333 15.7799 29.3333C10.5855 29.3333 6.66663 25.6878 6.66663 20.8556V14.4734C6.66663 13.5967 7.37996 12.8878 8.2544 12.8878ZM17.0488 23.8155V21.2611C17.6866 20.8444 18.111 20.1278 18.111 19.3122C18.111 18.0289 17.0666 16.9833 15.7799 16.9833C14.4966 16.9833 13.4522 18.0289 13.4522 19.3122C13.4522 20.1278 13.8744 20.8444 14.5121 21.2611V23.8155C14.5121 24.5166 15.081 25.0855 15.7799 25.0855C16.481 25.0855 17.0488 24.5166 17.0488 23.8155Z" fill="#253050"/>
</svg>
