<?xml version="1.0" encoding="utf-8"?>
<!-- Generator: Adobe Illustrator 21.1.0, SVG Export Plug-In . SVG Version: 6.00 Build 0)  -->
<svg version="1.0" id="Layer_1" xmlns="http://www.w3.org/2000/svg" xmlns:xlink="http://www.w3.org/1999/xlink" x="0px" y="0px"
	 width="24px" height="24px" viewBox="0 0 24 24" enable-background="new 0 0 24 24" xml:space="preserve">
<path fill-rule="evenodd" clip-rule="evenodd" fill="#253B56" d="M12.7,5.7c-1.1,0-2-0.9-2-2c0,0,0,0,0,0c0-0.2-0.1-0.4-0.3-0.4
	c-0.1,0-0.2-0.1-0.4-0.1l-6.9,0c-0.1,0-0.2,0-0.3,0C2.7,3.3,2.5,3.5,2.5,3.7l0,0c0,0.4-0.1,0.7-0.3,1c-0.4,0.6-1,1-1.7,1
	c0,0,0,0,0,0C0.3,5.7,0.1,5.9,0,6.1c0,0.1,0,0.2,0,0.2c0,0,0,0,0,0l0,13.4c0,0.1,0,0.2,0.1,0.3c0.1,0.2,0.2,0.3,0.4,0.3
	c1.1,0,2,0.9,2,2c0,0.2,0.1,0.4,0.3,0.4c0.1,0,0.2,0,0.3,0l6.9,0c0.1,0,0.2,0,0.4-0.1c0.2-0.1,0.3-0.2,0.3-0.4c0-0.3,0.1-0.7,0.3-1
	c0.4-0.6,1-1,1.7-1c0.2,0,0.3-0.1,0.4-0.2c0,0,0-0.1,0-0.1c0-0.1,0.1-0.2,0.1-0.3v0V6C13.1,5.8,12.9,5.7,12.7,5.7 M10,12.1
	c-0.3,0.4-0.8,0.6-1.3,0.5c0.2,0.3,0.3,0.7,0.3,1.1c0,1.3-1,2.3-2.3,2.3c-1.3,0-2.3-1-2.3-2.3c0-0.4,0.1-0.8,0.3-1.1
	c-0.5,0.1-1.1-0.1-1.3-0.5c-0.4-0.6-0.1-1.4,0.6-1.8c0.7-0.4,1.6-0.3,1.9,0.2c0.2,0.3,0.2,0.6,0.1,1c0.2-0.1,0.5-0.1,0.8-0.1
	c0.3,0,0.5,0,0.8,0.1c-0.1-0.3-0.1-0.7,0.1-1c0.4-0.6,1.2-0.7,1.9-0.2C10.1,10.7,10.3,11.5,10,12.1 M24,7.1
	c-0.1-0.1-0.1-0.2-0.2-0.3l-4.6-5.2c-0.1-0.1-0.1-0.1-0.2-0.2c-0.2-0.1-0.4-0.1-0.6,0l0,0c-0.3,0.2-0.6,0.4-0.9,0.5
	c-0.7,0.1-1.4-0.1-1.9-0.6c0,0,0,0,0,0c-0.1-0.2-0.4-0.2-0.6-0.1c-0.1,0-0.1,0.1-0.2,0.1c0,0,0,0,0,0l-2.9,2.5
	c0.1,0.3,0.4,0.6,0.8,0.6c0.8,0,1.5,0.5,1.7,1.3l0,0.1V6v13.3l9.1-8.1c0.1-0.1,0.1-0.1,0.2-0.2c0.1-0.2,0.1-0.4,0-0.6
	c-0.7-0.8-0.6-2.1,0.2-2.8c0,0,0,0,0,0C24,7.5,24,7.3,24,7.1"/>
</svg>
