<svg width="20" height="20" viewBox="0 0 20 20" fill="none" xmlns="http://www.w3.org/2000/svg">
<path fill-rule="evenodd" clip-rule="evenodd" d="M13.6653 8.84027C13.6653 11.5051 11.5051 13.6653 8.84027 13.6653C6.17547 13.6653 4.01522 11.5051 4.01522 8.84027C4.01522 6.17547 6.17547 4.01522 8.84027 4.01522C11.5051 4.01522 13.6653 6.17547 13.6653 8.84027ZM1.66675 8.84027C1.66675 12.8021 4.87844 16.0138 8.84027 16.0138C10.3546 16.0138 11.7593 15.5446 12.9169 14.7436L16.0353 17.862C16.5452 18.3719 17.3719 18.3719 17.8818 17.862C18.3917 17.3521 18.3917 16.5254 17.8818 16.0155L14.7598 12.8935C15.5509 11.7403 16.0138 10.3444 16.0138 8.84027C16.0138 4.87844 12.8021 1.66675 8.84027 1.66675C4.87844 1.66675 1.66675 4.87844 1.66675 8.84027Z" fill="#7D8396"/>
</svg>
